<?xml version="1.0" standalone="no"?>
<!DOCTYPE svg PUBLIC "-//W3C//DTD SVG 20010904//EN"
 "http://www.w3.org/TR/2001/REC-SVG-20010904/DTD/svg10.dtd">
<svg version="1.0" xmlns="http://www.w3.org/2000/svg"
 width="1920.000000pt" height="1920.000000pt" viewBox="0 0 1920.000000 1920.000000"
 preserveAspectRatio="xMidYMid meet">
<metadata>
Created by potrace 1.14, written by Peter Selinger 2001-2017
</metadata>
<g transform="translate(0.000000,1920.000000) scale(0.100000,-0.100000)"
fill="#000000" stroke="none">
<path d="M5637 18084 c-1 -1 -33 -5 -72 -8 -214 -18 -444 -101 -631 -228 -89
-61 -240 -205 -307 -293 -40 -53 -137 -208 -137 -220 0 -2 -11 -28 -24 -57
-35 -74 -72 -196 -93 -303 -16 -85 -17 -479 -17 -7355 0 -3996 3 -7290 6
-7320 35 -297 167 -568 378 -780 130 -130 211 -190 361 -266 81 -40 253 -99
320 -109 24 -4 46 -8 49 -10 26 -16 671 -18 4180 -19 3559 0 4164 3 4189 19 4
2 27 6 51 10 117 17 326 103 461 190 94 61 102 68 219 185 203 204 321 434
369 719 17 101 18 454 16 7386 -2 6638 -3 7287 -18 7362 -17 87 -63 234 -98
311 -22 49 -98 183 -108 192 -4 3 -19 25 -35 49 -27 43 -190 212 -250 260
-175 141 -450 253 -681 277 -55 5 -8122 13 -8128 8z"/>
</g>
</svg>
